<svg xmlns="http://www.w3.org/2000/svg" viewBox="66 14 68 68" shape-rendering="crispEdges" aria-hidden="true">
  <g id="eye-tracking-container" class="eye-fire">
        <g id="eye-ball-group">
            <g fill="#FF8C00" class="eye-iris-mid">
            <rect x="92" y="22" width="2" height="2" />
            <rect x="106" y="22" width="2" height="2" />
            <rect x="82" y="26" width="2" height="2" />
            <rect x="116" y="26" width="2" height="2" />
            <rect x="96" y="28" width="2" height="2" />
            <rect x="102" y="28" width="2" height="2" />
            <rect x="96" y="30" width="2" height="2" />
            <rect x="102" y="30" width="2" height="2" />
            <rect x="74" y="32" width="2" height="2" />
            <rect x="76" y="32" width="2" height="2" />
            <rect x="94" y="32" width="2" height="2" />
            <rect x="118" y="32" width="2" height="2" />
            <rect x="122" y="32" width="2" height="2" />
            <rect x="124" y="32" width="2" height="2" />
            <rect x="74" y="34" width="2" height="2" />
            <rect x="78" y="34" width="2" height="2" />
            <rect x="80" y="34" width="2" height="2" />
            <rect x="94" y="34" width="2" height="2" />
            <rect x="74" y="36" width="2" height="2" />
            <rect x="76" y="36" width="2" height="2" />
            <rect x="94" y="36" width="2" height="2" />
            <rect x="122" y="36" width="2" height="2" />
            <rect x="124" y="36" width="2" height="2" />
            <rect x="74" y="38" width="2" height="2" />
            <rect x="94" y="38" width="2" height="2" />
            <rect x="124" y="38" width="2" height="2" />
            <rect x="72" y="40" width="2" height="2" />
            <rect x="74" y="40" width="2" height="2" />
            <rect x="76" y="40" width="2" height="2" />
            <rect x="94" y="40" width="2" height="2" />
            <rect x="122" y="40" width="2" height="2" />
            <rect x="124" y="40" width="2" height="2" />
            <rect x="126" y="40" width="2" height="2" />
            <rect x="72" y="42" width="2" height="2" />
            <rect x="74" y="42" width="2" height="2" />
            <rect x="76" y="42" width="2" height="2" />
            <rect x="78" y="42" width="2" height="2" />
            <rect x="94" y="42" width="2" height="2" />
            <rect x="104" y="42" width="2" height="2" />
            <rect x="120" y="42" width="2" height="2" />
            <rect x="122" y="42" width="2" height="2" />
            <rect x="124" y="42" width="2" height="2" />
            <rect x="126" y="42" width="2" height="2" />
            <rect x="70" y="44" width="2" height="2" />
            <rect x="72" y="44" width="2" height="2" />
            <rect x="74" y="44" width="2" height="2" />
            <rect x="104" y="44" width="2" height="2" />
            <rect x="124" y="44" width="2" height="2" />
            <rect x="126" y="44" width="2" height="2" />
            <rect x="72" y="46" width="2" height="2" />
            <rect x="104" y="46" width="2" height="2" />
            <rect x="124" y="46" width="2" height="2" />
            <rect x="126" y="46" width="2" height="2" />
            <rect x="72" y="48" width="2" height="2" />
            <rect x="104" y="48" width="2" height="2" />
            <rect x="124" y="48" width="2" height="2" />
            <rect x="126" y="48" width="2" height="2" />
            <rect x="70" y="50" width="2" height="2" />
            <rect x="72" y="50" width="2" height="2" />
            <rect x="74" y="50" width="2" height="2" />
            <rect x="104" y="50" width="2" height="2" />
            <rect x="124" y="50" width="2" height="2" />
            <rect x="126" y="50" width="2" height="2" />
            <rect x="72" y="52" width="2" height="2" />
            <rect x="74" y="52" width="2" height="2" />
            <rect x="76" y="52" width="2" height="2" />
            <rect x="78" y="52" width="2" height="2" />
            <rect x="94" y="52" width="2" height="2" />
            <rect x="104" y="52" width="2" height="2" />
            <rect x="120" y="52" width="2" height="2" />
            <rect x="122" y="52" width="2" height="2" />
            <rect x="124" y="52" width="2" height="2" />
            <rect x="126" y="52" width="2" height="2" />
            <rect x="72" y="54" width="2" height="2" />
            <rect x="74" y="54" width="2" height="2" />
            <rect x="76" y="54" width="2" height="2" />
            <rect x="94" y="54" width="2" height="2" />
            <rect x="122" y="54" width="2" height="2" />
            <rect x="124" y="54" width="2" height="2" />
            <rect x="126" y="54" width="2" height="2" />
            <rect x="74" y="56" width="2" height="2" />
            <rect x="94" y="56" width="2" height="2" />
            <rect x="124" y="56" width="2" height="2" />
            <rect x="74" y="58" width="2" height="2" />
            <rect x="76" y="58" width="2" height="2" />
            <rect x="94" y="58" width="2" height="2" />
            <rect x="122" y="58" width="2" height="2" />
            <rect x="124" y="58" width="2" height="2" />
            <rect x="74" y="60" width="2" height="2" />
            <rect x="78" y="60" width="2" height="2" />
            <rect x="80" y="60" width="2" height="2" />
            <rect x="94" y="60" width="2" height="2" />
            <rect x="120" y="60" width="2" height="2" />
            <rect x="74" y="62" width="2" height="2" />
            <rect x="76" y="62" width="2" height="2" />
            <rect x="94" y="62" width="2" height="2" />
            <rect x="118" y="62" width="2" height="2" />
            <rect x="122" y="62" width="2" height="2" />
            <rect x="124" y="62" width="2" height="2" />
            <rect x="96" y="64" width="2" height="2" />
            <rect x="102" y="64" width="2" height="2" />
            <rect x="96" y="66" width="2" height="2" />
            <rect x="102" y="66" width="2" height="2" />
            <rect x="82" y="68" width="2" height="2" />
            <rect x="116" y="68" width="2" height="2" />
            <rect x="92" y="72" width="2" height="2" />
            <rect x="106" y="72" width="2" height="2" />
            </g>
            <g fill="#FFCC00" class="eye-iris-mid">
            <rect x="98" y="24" width="2" height="2" />
            <rect x="100" y="24" width="2" height="2" />
            <rect x="100" y="26" width="2" height="2" />
            <rect x="72" y="32" width="2" height="2" />
            <rect x="96" y="32" width="2" height="2" />
            <rect x="102" y="32" width="2" height="2" />
            <rect x="126" y="32" width="2" height="2" />
            <rect x="72" y="34" width="2" height="2" />
            <rect x="102" y="34" width="2" height="2" />
            <rect x="124" y="34" width="2" height="2" />
            <rect x="126" y="34" width="2" height="2" />
            <rect x="70" y="36" width="2" height="2" />
            <rect x="72" y="36" width="2" height="2" />
            <rect x="102" y="36" width="2" height="2" />
            <rect x="126" y="36" width="2" height="2" />
            <rect x="128" y="36" width="2" height="2" />
            <rect x="70" y="38" width="2" height="2" />
            <rect x="72" y="38" width="2" height="2" />
            <rect x="102" y="38" width="2" height="2" />
            <rect x="126" y="38" width="2" height="2" />
            <rect x="128" y="38" width="2" height="2" />
            <rect x="70" y="40" width="2" height="2" />
            <rect x="102" y="40" width="2" height="2" />
            <rect x="128" y="40" width="2" height="2" />
            <rect x="68" y="42" width="2" height="2" />
            <rect x="70" y="42" width="2" height="2" />
            <rect x="102" y="42" width="2" height="2" />
            <rect x="128" y="42" width="2" height="2" />
            <rect x="130" y="42" width="2" height="2" />
            <rect x="68" y="44" width="2" height="2" />
            <rect x="94" y="44" width="2" height="2" />
            <rect x="102" y="44" width="2" height="2" />
            <rect x="128" y="44" width="2" height="2" />
            <rect x="68" y="46" width="2" height="2" />
            <rect x="70" y="46" width="2" height="2" />
            <rect x="94" y="46" width="2" height="2" />
            <rect x="102" y="46" width="2" height="2" />
            <rect x="128" y="46" width="2" height="2" />
            <rect x="68" y="48" width="2" height="2" />
            <rect x="70" y="48" width="2" height="2" />
            <rect x="94" y="48" width="2" height="2" />
            <rect x="102" y="48" width="2" height="2" />
            <rect x="128" y="48" width="2" height="2" />
            <rect x="68" y="50" width="2" height="2" />
            <rect x="94" y="50" width="2" height="2" />
            <rect x="102" y="50" width="2" height="2" />
            <rect x="128" y="50" width="2" height="2" />
            <rect x="68" y="52" width="2" height="2" />
            <rect x="70" y="52" width="2" height="2" />
            <rect x="102" y="52" width="2" height="2" />
            <rect x="128" y="52" width="2" height="2" />
            <rect x="70" y="54" width="2" height="2" />
            <rect x="102" y="54" width="2" height="2" />
            <rect x="128" y="54" width="2" height="2" />
            <rect x="70" y="56" width="2" height="2" />
            <rect x="72" y="56" width="2" height="2" />
            <rect x="102" y="56" width="2" height="2" />
            <rect x="126" y="56" width="2" height="2" />
            <rect x="128" y="56" width="2" height="2" />
            <rect x="70" y="58" width="2" height="2" />
            <rect x="72" y="58" width="2" height="2" />
            <rect x="102" y="58" width="2" height="2" />
            <rect x="126" y="58" width="2" height="2" />
            <rect x="128" y="58" width="2" height="2" />
            <rect x="72" y="60" width="2" height="2" />
            <rect x="96" y="60" width="2" height="2" />
            <rect x="102" y="60" width="2" height="2" />
            <rect x="124" y="60" width="2" height="2" />
            <rect x="126" y="60" width="2" height="2" />
            <rect x="72" y="62" width="2" height="2" />
            <rect x="96" y="62" width="2" height="2" />
            <rect x="102" y="62" width="2" height="2" />
            <rect x="126" y="62" width="2" height="2" />
            <rect x="98" y="68" width="2" height="2" />
            <rect x="100" y="68" width="2" height="2" />
            <rect x="98" y="70" width="2" height="2" />
            <rect x="100" y="70" width="2" height="2" />
            </g>
            <g fill="#FFD700" class="eye-iris-core">
            <rect x="98" y="26" width="2" height="2" />
            <rect x="96" y="34" width="2" height="2" />
            <rect x="96" y="36" width="2" height="2" />
            <rect x="96" y="38" width="2" height="2" />
            <rect x="96" y="40" width="2" height="2" />
            <rect x="96" y="42" width="2" height="2" />
            <rect x="96" y="44" width="2" height="2" />
            <rect x="96" y="46" width="2" height="2" />
            <rect x="96" y="48" width="2" height="2" />
            <rect x="96" y="50" width="2" height="2" />
            <rect x="96" y="52" width="2" height="2" />
            <rect x="96" y="54" width="2" height="2" />
            <rect x="96" y="56" width="2" height="2" />
            <rect x="96" y="58" width="2" height="2" />
            </g>
            <g fill="#C32121" class="eye-iris-outer">
            <rect x="92" y="20" width="2" height="2" />
            <rect x="94" y="20" width="2" height="2" />
            <rect x="96" y="20" width="2" height="2" />
            <rect x="98" y="20" width="2" height="2" />
            <rect x="100" y="20" width="2" height="2" />
            <rect x="102" y="20" width="2" height="2" />
            <rect x="104" y="20" width="2" height="2" />
            <rect x="106" y="20" width="2" height="2" />
            <rect x="84" y="22" width="2" height="2" />
            <rect x="86" y="22" width="2" height="2" />
            <rect x="88" y="22" width="2" height="2" />
            <rect x="90" y="22" width="2" height="2" />
            <rect x="94" y="22" width="2" height="2" />
            <rect x="96" y="22" width="2" height="2" />
            <rect x="98" y="22" width="2" height="2" />
            <rect x="100" y="22" width="2" height="2" />
            <rect x="102" y="22" width="2" height="2" />
            <rect x="104" y="22" width="2" height="2" />
            <rect x="108" y="22" width="2" height="2" />
            <rect x="110" y="22" width="2" height="2" />
            <rect x="112" y="22" width="2" height="2" />
            <rect x="82" y="24" width="2" height="2" />
            <rect x="84" y="24" width="2" height="2" />
            <rect x="86" y="24" width="2" height="2" />
            <rect x="88" y="24" width="2" height="2" />
            <rect x="90" y="24" width="2" height="2" />
            <rect x="92" y="24" width="2" height="2" />
            <rect x="94" y="24" width="2" height="2" />
            <rect x="96" y="24" width="2" height="2" />
            <rect x="102" y="24" width="2" height="2" />
            <rect x="104" y="24" width="2" height="2" />
            <rect x="106" y="24" width="2" height="2" />
            <rect x="108" y="24" width="2" height="2" />
            <rect x="110" y="24" width="2" height="2" />
            <rect x="112" y="24" width="2" height="2" />
            <rect x="114" y="24" width="2" height="2" />
            <rect x="116" y="24" width="2" height="2" />
            <rect x="84" y="26" width="2" height="2" />
            <rect x="86" y="26" width="2" height="2" />
            <rect x="88" y="26" width="2" height="2" />
            <rect x="90" y="26" width="2" height="2" />
            <rect x="92" y="26" width="2" height="2" />
            <rect x="94" y="26" width="2" height="2" />
            <rect x="96" y="26" width="2" height="2" />
            <rect x="102" y="26" width="2" height="2" />
            <rect x="104" y="26" width="2" height="2" />
            <rect x="106" y="26" width="2" height="2" />
            <rect x="108" y="26" width="2" height="2" />
            <rect x="110" y="26" width="2" height="2" />
            <rect x="112" y="26" width="2" height="2" />
            <rect x="114" y="26" width="2" height="2" />
            <rect x="82" y="28" width="2" height="2" />
            <rect x="84" y="28" width="2" height="2" />
            <rect x="86" y="28" width="2" height="2" />
            <rect x="88" y="28" width="2" height="2" />
            <rect x="94" y="28" width="2" height="2" />
            <rect x="100" y="28" width="2" height="2" />
            <rect x="104" y="28" width="2" height="2" />
            <rect x="108" y="28" width="2" height="2" />
            <rect x="110" y="28" width="2" height="2" />
            <rect x="112" y="28" width="2" height="2" />
            <rect x="114" y="28" width="2" height="2" />
            <rect x="116" y="28" width="2" height="2" />
            <rect x="82" y="30" width="2" height="2" />
            <rect x="84" y="30" width="2" height="2" />
            <rect x="86" y="30" width="2" height="2" />
            <rect x="88" y="30" width="2" height="2" />
            <rect x="94" y="30" width="2" height="2" />
            <rect x="100" y="30" width="2" height="2" />
            <rect x="104" y="30" width="2" height="2" />
            <rect x="110" y="30" width="2" height="2" />
            <rect x="112" y="30" width="2" height="2" />
            <rect x="114" y="30" width="2" height="2" />
            <rect x="116" y="30" width="2" height="2" />
            <rect x="78" y="32" width="2" height="2" />
            <rect x="80" y="32" width="2" height="2" />
            <rect x="82" y="32" width="2" height="2" />
            <rect x="86" y="32" width="2" height="2" />
            <rect x="92" y="32" width="2" height="2" />
            <rect x="100" y="32" width="2" height="2" />
            <rect x="104" y="32" width="2" height="2" />
            <rect x="106" y="32" width="2" height="2" />
            <rect x="110" y="32" width="2" height="2" />
            <rect x="112" y="32" width="2" height="2" />
            <rect x="114" y="32" width="2" height="2" />
            <rect x="116" y="32" width="2" height="2" />
            <rect x="120" y="32" width="2" height="2" />
            <rect x="82" y="34" width="2" height="2" />
            <rect x="84" y="34" width="2" height="2" />
            <rect x="90" y="34" width="2" height="2" />
            <rect x="92" y="34" width="2" height="2" />
            <rect x="100" y="34" width="2" height="2" />
            <rect x="104" y="34" width="2" height="2" />
            <rect x="106" y="34" width="2" height="2" />
            <rect x="108" y="34" width="2" height="2" />
            <rect x="112" y="34" width="2" height="2" />
            <rect x="114" y="34" width="2" height="2" />
            <rect x="116" y="34" width="2" height="2" />
            <rect x="118" y="34" width="2" height="2" />
            <rect x="120" y="34" width="2" height="2" />
            <rect x="122" y="34" width="2" height="2" />
            <rect x="78" y="36" width="2" height="2" />
            <rect x="80" y="36" width="2" height="2" />
            <rect x="82" y="36" width="2" height="2" />
            <rect x="84" y="36" width="2" height="2" />
            <rect x="86" y="36" width="2" height="2" />
            <rect x="90" y="36" width="2" height="2" />
            <rect x="104" y="36" width="2" height="2" />
            <rect x="108" y="36" width="2" height="2" />
            <rect x="110" y="36" width="2" height="2" />
            <rect x="112" y="36" width="2" height="2" />
            <rect x="114" y="36" width="2" height="2" />
            <rect x="116" y="36" width="2" height="2" />
            <rect x="118" y="36" width="2" height="2" />
            <rect x="120" y="36" width="2" height="2" />
            <rect x="76" y="38" width="2" height="2" />
            <rect x="78" y="38" width="2" height="2" />
            <rect x="80" y="38" width="2" height="2" />
            <rect x="82" y="38" width="2" height="2" />
            <rect x="84" y="38" width="2" height="2" />
            <rect x="90" y="38" width="2" height="2" />
            <rect x="92" y="38" width="2" height="2" />
            <rect x="104" y="38" width="2" height="2" />
            <rect x="106" y="38" width="2" height="2" />
            <rect x="114" y="38" width="2" height="2" />
            <rect x="116" y="38" width="2" height="2" />
            <rect x="118" y="38" width="2" height="2" />
            <rect x="120" y="38" width="2" height="2" />
            <rect x="122" y="38" width="2" height="2" />
            <rect x="78" y="40" width="2" height="2" />
            <rect x="80" y="40" width="2" height="2" />
            <rect x="82" y="40" width="2" height="2" />
            <rect x="84" y="40" width="2" height="2" />
            <rect x="86" y="40" width="2" height="2" />
            <rect x="104" y="40" width="2" height="2" />
            <rect x="112" y="40" width="2" height="2" />
            <rect x="114" y="40" width="2" height="2" />
            <rect x="116" y="40" width="2" height="2" />
            <rect x="118" y="40" width="2" height="2" />
            <rect x="120" y="40" width="2" height="2" />
            <rect x="80" y="42" width="2" height="2" />
            <rect x="82" y="42" width="2" height="2" />
            <rect x="84" y="42" width="2" height="2" />
            <rect x="86" y="42" width="2" height="2" />
            <rect x="92" y="42" width="2" height="2" />
            <rect x="106" y="42" width="2" height="2" />
            <rect x="112" y="42" width="2" height="2" />
            <rect x="114" y="42" width="2" height="2" />
            <rect x="116" y="42" width="2" height="2" />
            <rect x="118" y="42" width="2" height="2" />
            <rect x="76" y="44" width="2" height="2" />
            <rect x="78" y="44" width="2" height="2" />
            <rect x="80" y="44" width="2" height="2" />
            <rect x="82" y="44" width="2" height="2" />
            <rect x="84" y="44" width="2" height="2" />
            <rect x="86" y="44" width="2" height="2" />
            <rect x="92" y="44" width="2" height="2" />
            <rect x="106" y="44" width="2" height="2" />
            <rect x="110" y="44" width="2" height="2" />
            <rect x="112" y="44" width="2" height="2" />
            <rect x="114" y="44" width="2" height="2" />
            <rect x="116" y="44" width="2" height="2" />
            <rect x="118" y="44" width="2" height="2" />
            <rect x="120" y="44" width="2" height="2" />
            <rect x="122" y="44" width="2" height="2" />
            <rect x="74" y="46" width="2" height="2" />
            <rect x="76" y="46" width="2" height="2" />
            <rect x="78" y="46" width="2" height="2" />
            <rect x="80" y="46" width="2" height="2" />
            <rect x="82" y="46" width="2" height="2" />
            <rect x="84" y="46" width="2" height="2" />
            <rect x="86" y="46" width="2" height="2" />
            <rect x="88" y="46" width="2" height="2" />
            <rect x="90" y="46" width="2" height="2" />
            <rect x="92" y="46" width="2" height="2" />
            <rect x="106" y="46" width="2" height="2" />
            <rect x="108" y="46" width="2" height="2" />
            <rect x="110" y="46" width="2" height="2" />
            <rect x="112" y="46" width="2" height="2" />
            <rect x="114" y="46" width="2" height="2" />
            <rect x="116" y="46" width="2" height="2" />
            <rect x="118" y="46" width="2" height="2" />
            <rect x="120" y="46" width="2" height="2" />
            <rect x="122" y="46" width="2" height="2" />
            <rect x="74" y="48" width="2" height="2" />
            <rect x="76" y="48" width="2" height="2" />
            <rect x="78" y="48" width="2" height="2" />
            <rect x="80" y="48" width="2" height="2" />
            <rect x="82" y="48" width="2" height="2" />
            <rect x="84" y="48" width="2" height="2" />
            <rect x="86" y="48" width="2" height="2" />
            <rect x="88" y="48" width="2" height="2" />
            <rect x="90" y="48" width="2" height="2" />
            <rect x="92" y="48" width="2" height="2" />
            <rect x="106" y="48" width="2" height="2" />
            <rect x="108" y="48" width="2" height="2" />
            <rect x="110" y="48" width="2" height="2" />
            <rect x="112" y="48" width="2" height="2" />
            <rect x="114" y="48" width="2" height="2" />
            <rect x="116" y="48" width="2" height="2" />
            <rect x="118" y="48" width="2" height="2" />
            <rect x="120" y="48" width="2" height="2" />
            <rect x="122" y="48" width="2" height="2" />
            <rect x="76" y="50" width="2" height="2" />
            <rect x="78" y="50" width="2" height="2" />
            <rect x="80" y="50" width="2" height="2" />
            <rect x="82" y="50" width="2" height="2" />
            <rect x="84" y="50" width="2" height="2" />
            <rect x="86" y="50" width="2" height="2" />
            <rect x="92" y="50" width="2" height="2" />
            <rect x="106" y="50" width="2" height="2" />
            <rect x="110" y="50" width="2" height="2" />
            <rect x="112" y="50" width="2" height="2" />
            <rect x="114" y="50" width="2" height="2" />
            <rect x="116" y="50" width="2" height="2" />
            <rect x="118" y="50" width="2" height="2" />
            <rect x="120" y="50" width="2" height="2" />
            <rect x="122" y="50" width="2" height="2" />
            <rect x="80" y="52" width="2" height="2" />
            <rect x="82" y="52" width="2" height="2" />
            <rect x="84" y="52" width="2" height="2" />
            <rect x="86" y="52" width="2" height="2" />
            <rect x="92" y="52" width="2" height="2" />
            <rect x="106" y="52" width="2" height="2" />
            <rect x="112" y="52" width="2" height="2" />
            <rect x="114" y="52" width="2" height="2" />
            <rect x="116" y="52" width="2" height="2" />
            <rect x="118" y="52" width="2" height="2" />
            <rect x="78" y="54" width="2" height="2" />
            <rect x="80" y="54" width="2" height="2" />
            <rect x="82" y="54" width="2" height="2" />
            <rect x="84" y="54" width="2" height="2" />
            <rect x="86" y="54" width="2" height="2" />
            <rect x="104" y="54" width="2" height="2" />
            <rect x="112" y="54" width="2" height="2" />
            <rect x="114" y="54" width="2" height="2" />
            <rect x="116" y="54" width="2" height="2" />
            <rect x="118" y="54" width="2" height="2" />
            <rect x="120" y="54" width="2" height="2" />
            <rect x="76" y="56" width="2" height="2" />
            <rect x="78" y="56" width="2" height="2" />
            <rect x="80" y="56" width="2" height="2" />
            <rect x="82" y="56" width="2" height="2" />
            <rect x="84" y="56" width="2" height="2" />
            <rect x="90" y="56" width="2" height="2" />
            <rect x="92" y="56" width="2" height="2" />
            <rect x="104" y="56" width="2" height="2" />
            <rect x="106" y="56" width="2" height="2" />
            <rect x="110" y="56" width="2" height="2" />
            <rect x="114" y="56" width="2" height="2" />
            <rect x="116" y="56" width="2" height="2" />
            <rect x="118" y="56" width="2" height="2" />
            <rect x="120" y="56" width="2" height="2" />
            <rect x="122" y="56" width="2" height="2" />
            <rect x="78" y="58" width="2" height="2" />
            <rect x="80" y="58" width="2" height="2" />
            <rect x="82" y="58" width="2" height="2" />
            <rect x="84" y="58" width="2" height="2" />
            <rect x="86" y="58" width="2" height="2" />
            <rect x="90" y="58" width="2" height="2" />
            <rect x="104" y="58" width="2" height="2" />
            <rect x="108" y="58" width="2" height="2" />
            <rect x="110" y="58" width="2" height="2" />
            <rect x="112" y="58" width="2" height="2" />
            <rect x="114" y="58" width="2" height="2" />
            <rect x="116" y="58" width="2" height="2" />
            <rect x="118" y="58" width="2" height="2" />
            <rect x="120" y="58" width="2" height="2" />
            <rect x="82" y="60" width="2" height="2" />
            <rect x="90" y="60" width="2" height="2" />
            <rect x="92" y="60" width="2" height="2" />
            <rect x="100" y="60" width="2" height="2" />
            <rect x="104" y="60" width="2" height="2" />
            <rect x="106" y="60" width="2" height="2" />
            <rect x="108" y="60" width="2" height="2" />
            <rect x="112" y="60" width="2" height="2" />
            <rect x="114" y="60" width="2" height="2" />
            <rect x="116" y="60" width="2" height="2" />
            <rect x="118" y="60" width="2" height="2" />
            <rect x="78" y="62" width="2" height="2" />
            <rect x="80" y="62" width="2" height="2" />
            <rect x="82" y="62" width="2" height="2" />
            <rect x="84" y="62" width="2" height="2" />
            <rect x="86" y="62" width="2" height="2" />
            <rect x="92" y="62" width="2" height="2" />
            <rect x="100" y="62" width="2" height="2" />
            <rect x="104" y="62" width="2" height="2" />
            <rect x="106" y="62" width="2" height="2" />
            <rect x="110" y="62" width="2" height="2" />
            <rect x="112" y="62" width="2" height="2" />
            <rect x="114" y="62" width="2" height="2" />
            <rect x="116" y="62" width="2" height="2" />
            <rect x="82" y="64" width="2" height="2" />
            <rect x="84" y="64" width="2" height="2" />
            <rect x="86" y="64" width="2" height="2" />
            <rect x="88" y="64" width="2" height="2" />
            <rect x="94" y="64" width="2" height="2" />
            <rect x="100" y="64" width="2" height="2" />
            <rect x="110" y="64" width="2" height="2" />
            <rect x="112" y="64" width="2" height="2" />
            <rect x="114" y="64" width="2" height="2" />
            <rect x="116" y="64" width="2" height="2" />
            <rect x="82" y="66" width="2" height="2" />
            <rect x="84" y="66" width="2" height="2" />
            <rect x="86" y="66" width="2" height="2" />
            <rect x="88" y="66" width="2" height="2" />
            <rect x="92" y="66" width="2" height="2" />
            <rect x="94" y="66" width="2" height="2" />
            <rect x="100" y="66" width="2" height="2" />
            <rect x="104" y="66" width="2" height="2" />
            <rect x="110" y="66" width="2" height="2" />
            <rect x="112" y="66" width="2" height="2" />
            <rect x="114" y="66" width="2" height="2" />
            <rect x="116" y="66" width="2" height="2" />
            <rect x="84" y="68" width="2" height="2" />
            <rect x="86" y="68" width="2" height="2" />
            <rect x="88" y="68" width="2" height="2" />
            <rect x="90" y="68" width="2" height="2" />
            <rect x="92" y="68" width="2" height="2" />
            <rect x="94" y="68" width="2" height="2" />
            <rect x="96" y="68" width="2" height="2" />
            <rect x="102" y="68" width="2" height="2" />
            <rect x="104" y="68" width="2" height="2" />
            <rect x="106" y="68" width="2" height="2" />
            <rect x="108" y="68" width="2" height="2" />
            <rect x="110" y="68" width="2" height="2" />
            <rect x="112" y="68" width="2" height="2" />
            <rect x="114" y="68" width="2" height="2" />
            <rect x="82" y="70" width="2" height="2" />
            <rect x="84" y="70" width="2" height="2" />
            <rect x="86" y="70" width="2" height="2" />
            <rect x="88" y="70" width="2" height="2" />
            <rect x="90" y="70" width="2" height="2" />
            <rect x="92" y="70" width="2" height="2" />
            <rect x="94" y="70" width="2" height="2" />
            <rect x="96" y="70" width="2" height="2" />
            <rect x="102" y="70" width="2" height="2" />
            <rect x="104" y="70" width="2" height="2" />
            <rect x="106" y="70" width="2" height="2" />
            <rect x="108" y="70" width="2" height="2" />
            <rect x="110" y="70" width="2" height="2" />
            <rect x="112" y="70" width="2" height="2" />
            <rect x="114" y="70" width="2" height="2" />
            <rect x="116" y="70" width="2" height="2" />
            <rect x="84" y="72" width="2" height="2" />
            <rect x="86" y="72" width="2" height="2" />
            <rect x="88" y="72" width="2" height="2" />
            <rect x="90" y="72" width="2" height="2" />
            <rect x="94" y="72" width="2" height="2" />
            <rect x="96" y="72" width="2" height="2" />
            <rect x="98" y="72" width="2" height="2" />
            <rect x="100" y="72" width="2" height="2" />
            <rect x="102" y="72" width="2" height="2" />
            <rect x="104" y="72" width="2" height="2" />
            <rect x="108" y="72" width="2" height="2" />
            <rect x="110" y="72" width="2" height="2" />
            <rect x="112" y="72" width="2" height="2" />
            <rect x="92" y="74" width="2" height="2" />
            <rect x="94" y="74" width="2" height="2" />
            <rect x="96" y="74" width="2" height="2" />
            <rect x="98" y="74" width="2" height="2" />
            <rect x="100" y="74" width="2" height="2" />
            <rect x="102" y="74" width="2" height="2" />
            <rect x="104" y="74" width="2" height="2" />
            <rect x="106" y="74" width="2" height="2" />
            </g>
            <g fill="#7B1414" class="eye-iris-outer">
            <rect x="90" y="28" width="2" height="2" />
            <rect x="92" y="28" width="2" height="2" />
            <rect x="106" y="28" width="2" height="2" />
            <rect x="90" y="30" width="2" height="2" />
            <rect x="92" y="30" width="2" height="2" />
            <rect x="106" y="30" width="2" height="2" />
            <rect x="108" y="30" width="2" height="2" />
            <rect x="84" y="32" width="2" height="2" />
            <rect x="88" y="32" width="2" height="2" />
            <rect x="90" y="32" width="2" height="2" />
            <rect x="108" y="32" width="2" height="2" />
            <rect x="86" y="34" width="2" height="2" />
            <rect x="88" y="34" width="2" height="2" />
            <rect x="110" y="34" width="2" height="2" />
            <rect x="88" y="36" width="2" height="2" />
            <rect x="92" y="36" width="2" height="2" />
            <rect x="106" y="36" width="2" height="2" />
            <rect x="86" y="38" width="2" height="2" />
            <rect x="88" y="38" width="2" height="2" />
            <rect x="108" y="38" width="2" height="2" />
            <rect x="110" y="38" width="2" height="2" />
            <rect x="112" y="38" width="2" height="2" />
            <rect x="88" y="40" width="2" height="2" />
            <rect x="90" y="40" width="2" height="2" />
            <rect x="92" y="40" width="2" height="2" />
            <rect x="106" y="40" width="2" height="2" />
            <rect x="108" y="40" width="2" height="2" />
            <rect x="110" y="40" width="2" height="2" />
            <rect x="88" y="42" width="2" height="2" />
            <rect x="90" y="42" width="2" height="2" />
            <rect x="108" y="42" width="2" height="2" />
            <rect x="110" y="42" width="2" height="2" />
            <rect x="88" y="44" width="2" height="2" />
            <rect x="90" y="44" width="2" height="2" />
            <rect x="108" y="44" width="2" height="2" />
            <rect x="88" y="50" width="2" height="2" />
            <rect x="90" y="50" width="2" height="2" />
            <rect x="108" y="50" width="2" height="2" />
            <rect x="88" y="52" width="2" height="2" />
            <rect x="90" y="52" width="2" height="2" />
            <rect x="108" y="52" width="2" height="2" />
            <rect x="110" y="52" width="2" height="2" />
            <rect x="88" y="54" width="2" height="2" />
            <rect x="90" y="54" width="2" height="2" />
            <rect x="92" y="54" width="2" height="2" />
            <rect x="106" y="54" width="2" height="2" />
            <rect x="108" y="54" width="2" height="2" />
            <rect x="110" y="54" width="2" height="2" />
            <rect x="86" y="56" width="2" height="2" />
            <rect x="88" y="56" width="2" height="2" />
            <rect x="108" y="56" width="2" height="2" />
            <rect x="112" y="56" width="2" height="2" />
            <rect x="88" y="58" width="2" height="2" />
            <rect x="92" y="58" width="2" height="2" />
            <rect x="106" y="58" width="2" height="2" />
            <rect x="84" y="60" width="2" height="2" />
            <rect x="86" y="60" width="2" height="2" />
            <rect x="88" y="60" width="2" height="2" />
            <rect x="110" y="60" width="2" height="2" />
            <rect x="88" y="62" width="2" height="2" />
            <rect x="90" y="62" width="2" height="2" />
            <rect x="108" y="62" width="2" height="2" />
            <rect x="90" y="64" width="2" height="2" />
            <rect x="92" y="64" width="2" height="2" />
            <rect x="104" y="64" width="2" height="2" />
            <rect x="106" y="64" width="2" height="2" />
            <rect x="108" y="64" width="2" height="2" />
            <rect x="90" y="66" width="2" height="2" />
            <rect x="106" y="66" width="2" height="2" />
            <rect x="108" y="66" width="2" height="2" />
            </g>
        </g>
        <g id="eye-pupil-slit">
            <g fill="#000000">
            <rect x="98" y="28" width="2" height="2" />
            <rect x="98" y="30" width="2" height="2" />
            <rect x="98" y="32" width="2" height="2" />
            <rect x="98" y="34" width="2" height="2" />
            <rect x="98" y="36" width="2" height="2" />
            <rect x="100" y="36" width="2" height="2" />
            <rect x="98" y="38" width="2" height="2" />
            <rect x="100" y="38" width="2" height="2" />
            <rect x="98" y="40" width="2" height="2" />
            <rect x="100" y="40" width="2" height="2" />
            <rect x="98" y="42" width="2" height="2" />
            <rect x="100" y="42" width="2" height="2" />
            <rect x="98" y="44" width="2" height="2" />
            <rect x="100" y="44" width="2" height="2" />
            <rect x="98" y="46" width="2" height="2" />
            <rect x="100" y="46" width="2" height="2" />
            <rect x="98" y="48" width="2" height="2" />
            <rect x="100" y="48" width="2" height="2" />
            <rect x="98" y="50" width="2" height="2" />
            <rect x="100" y="50" width="2" height="2" />
            <rect x="98" y="52" width="2" height="2" />
            <rect x="100" y="52" width="2" height="2" />
            <rect x="98" y="54" width="2" height="2" />
            <rect x="100" y="54" width="2" height="2" />
            <rect x="98" y="56" width="2" height="2" />
            <rect x="100" y="56" width="2" height="2" />
            <rect x="98" y="58" width="2" height="2" />
            <rect x="100" y="58" width="2" height="2" />
            <rect x="98" y="60" width="2" height="2" />
            <rect x="98" y="62" width="2" height="2" />
            <rect x="98" y="64" width="2" height="2" />
            <rect x="98" y="66" width="2" height="2" />
            </g>
        </g>
    </g>
</svg>
